# xmcd
#
# Track frame offsets: 
#        150
#        21823
#        35956
#        47321
#        65542
#        78926
#        89716
#        108307
#        137067
#        159473
#        190384
#        205838
#
# Disc length: 2967 seconds
#
# Revision: 0
# Processed by: cddbd v1.5.1PL0 Copyright (c) Steve Scherf et al.
# Submitted via: ExactAudioCopy v0.95a5
#
DISCID=a20b950c
DTITLE=P. Van Sant - I'm a believer
DYEAR=2005
DGENRE=Blues
TTITLE0=I'm a believer
TTITLE1=Rex's blues
TTITLE2=Ego for $ale
TTITLE3=Don't tell me how to do it
TTITLE4=Lost highway
TTITLE5=Midlife crisis blues
TTITLE6=The coo coo bird
TTITLE7=Get it while you can
TTITLE8=Ship of fools
TTITLE9=Troubadour
TTITLE10=Prozac airlines
TTITLE11=Are you hooked
EXTD=
EXTT0=
EXTT1=
EXTT2=
EXTT3=
EXTT4=
EXTT5=
EXTT6=
EXTT7=
EXTT8=
EXTT9=
EXTT10=
EXTT11=
PLAYORDER=
